<?xml version="1.0" standalone="no"?>
<!DOCTYPE svg PUBLIC "-//W3C//DTD SVG 20010904//EN"
 "http://www.w3.org/TR/2001/REC-SVG-20010904/DTD/svg10.dtd">
<svg version="1.0" xmlns="http://www.w3.org/2000/svg"
 width="400.000000pt" height="400.000000pt" viewBox="0 0 400.000000 400.000000"
 preserveAspectRatio="xMidYMid meet">
<metadata>
Created by potrace 1.14, written by Peter Selinger 2001-2017
</metadata>
<g transform="translate(0.000000,400.000000) scale(0.100000,-0.100000)"
fill="#000000" stroke="none">
<path d="M2398 3995 c-2 -2 -50 -6 -108 -9 -58 -4 -116 -8 -130 -10 -14 -2
-48 -7 -75 -10 -28 -4 -61 -9 -75 -11 -14 -3 -41 -7 -60 -10 -69 -9 -107 -17
-255 -51 -363 -83 -763 -228 -1118 -405 -43 -21 -83 -39 -88 -39 -5 0 -13 10
-18 23 -21 55 -126 175 -225 259 l-59 50 -18 -23 c-17 -23 -17 -24 14 -49 89
-70 248 -250 221 -250 -3 0 -29 7 -57 15 -82 23 -105 26 -230 32 l-117 6 4
-24 c3 -13 5 -27 5 -30 1 -3 27 -6 58 -6 87 0 169 -11 253 -32 117 -31 118
-31 123 -58 6 -34 6 -768 0 -815 -5 -35 -6 -36 -36 -27 -55 16 -162 11 -209
-10 -156 -66 -204 -283 -106 -474 40 -80 131 -155 210 -173 31 -8 116 -8 156
-1 17 3 33 2 34 -1 0 -4 3 -266 4 -582 3 -473 6 -685 13 -730 1 -3 72 -3 160
0 87 3 166 4 175 2 9 -2 19 -16 23 -30 20 -84 102 -114 161 -59 22 20 44 59
46 82 1 8 106 20 106 12 0 -8 -103 -307 -144 -416 -25 -69 -46 -128 -46 -133
0 -4 57 -8 127 -8 122 0 130 1 208 34 44 19 91 37 105 41 l24 8 -27 -36 c-15
-20 -27 -38 -27 -41 0 -3 48 -6 108 -6 83 1 125 6 187 25 70 21 95 23 200 20
129 -5 160 -8 274 -30 40 -8 106 -15 147 -15 l73 0 -22 41 c-12 23 -40 62 -62
87 -36 42 -38 45 -15 38 14 -4 32 -8 40 -10 34 -8 353 -118 396 -136 35 -15
68 -20 145 -20 54 0 99 2 99 5 0 2 -8 19 -19 37 -61 108 -103 181 -119 210
-48 84 -117 193 -124 196 -4 2 -8 8 -8 13 0 5 -16 31 -35 58 -24 33 -31 50
-23 53 7 2 73 4 146 4 l133 -1 -6 120 c-3 66 -8 158 -11 205 -10 137 -11 204
-5 221 3 10 42 41 86 70 231 153 452 467 474 673 l6 60 56 32 c74 44 199 162
253 238 79 113 136 249 151 356 4 24 8 47 10 50 2 4 6 52 9 108 l6 102 -48 0
c-26 0 -131 1 -233 1 l-187 0 2 96 c1 77 4 97 16 98 8 2 46 5 84 9 37 3 71 8
75 10 3 2 24 7 45 10 22 4 45 11 53 17 7 6 13 9 13 5 0 -16 127 60 165 100 55
56 69 98 63 184 -4 52 -13 81 -38 126 -68 119 -220 243 -405 330 -214 101
-454 162 -750 190 -60 5 -402 13 -407 9z"/>
</g>
</svg>
