<?xml version="1.0" standalone="no"?>
<!DOCTYPE svg PUBLIC "-//W3C//DTD SVG 20010904//EN"
 "http://www.w3.org/TR/2001/REC-SVG-20010904/DTD/svg10.dtd">
<svg version="1.0" xmlns="http://www.w3.org/2000/svg"
 width="512.000000pt" height="512.000000pt" viewBox="0 0 512.000000 512.000000"
 preserveAspectRatio="xMidYMid meet">
<metadata>
Created by potrace 1.14, written by Peter Selinger 2001-2017
</metadata>
<g transform="translate(0.000000,512.000000) scale(0.100000,-0.100000)"
fill="#000000" stroke="none">
<path d="M2379 5116 c-2 -2 -40 -6 -83 -10 -44 -4 -82 -9 -85 -11 -4 -2 -34
-7 -66 -10 -109 -13 -458 -107 -500 -134 -5 -4 -28 -13 -50 -20 -126 -43 -401
-198 -557 -314 -187 -139 -314 -263 -499 -484 -32 -39 -164 -236 -196 -293
-70 -125 -84 -154 -127 -252 -65 -150 -134 -357 -150 -451 -3 -15 -7 -35 -10
-45 -3 -9 -7 -34 -11 -56 -3 -21 -7 -41 -9 -45 -4 -6 -12 -68 -26 -201 -8 -81
-5 -463 5 -520 3 -19 13 -78 21 -130 40 -245 112 -468 233 -720 57 -120 144
-262 234 -382 331 -444 783 -763 1312 -927 115 -35 300 -76 395 -86 36 -4 86
-10 112 -14 48 -8 473 -6 518 3 14 2 45 7 70 10 25 4 92 16 150 27 58 12 116
23 130 26 39 7 316 101 369 124 90 41 244 121 320 166 636 382 1088 1046 1207
1773 38 236 40 573 5 805 -44 288 -139 569 -279 830 -50 92 -129 223 -142 235
-3 3 -23 30 -44 60 -238 336 -632 655 -1021 826 -44 20 -89 39 -100 44 -86 38
-365 119 -465 134 -19 3 -46 8 -60 11 -14 3 -45 8 -70 11 -25 3 -56 8 -70 10
-28 6 -456 15 -461 10z m306 -431 c138 -6 152 -7 300 -36 295 -57 592 -190
850 -381 265 -196 510 -496 656 -804 46 -97 132 -336 143 -399 2 -16 7 -41 11
-55 3 -14 7 -36 10 -50 3 -14 7 -34 9 -45 2 -11 7 -49 11 -85 4 -36 9 -74 11
-85 5 -26 5 -334 0 -360 -2 -11 -7 -51 -11 -90 -15 -153 -73 -378 -142 -545
-171 -415 -484 -779 -873 -1015 -191 -117 -475 -230 -650 -260 -19 -3 -53 -10
-75 -15 -22 -4 -69 -11 -105 -15 -36 -4 -74 -9 -85 -11 -27 -6 -334 -5 -365 0
-14 3 -52 7 -85 11 -380 39 -822 234 -1120 494 -72 62 -263 262 -292 304 -15
23 -38 53 -49 66 -33 36 -169 267 -210 355 -50 111 -101 254 -131 371 -28 111
-28 110 -37 180 -4 28 -10 64 -12 81 -11 74 -14 117 -15 252 0 129 3 187 17
292 40 298 137 573 296 832 36 58 70 112 77 120 6 7 38 49 72 93 121 155 372
384 514 466 22 13 56 34 75 47 103 70 460 216 575 235 17 3 62 12 100 20 90
20 137 26 260 33 55 4 101 8 103 9 1 1 12 1 25 -1 12 -2 76 -6 142 -9z"/>
</g>
</svg>
